<svg xmlns="http://www.w3.org/2000/svg" xmlns:xlink="http://www.w3.org/1999/xlink" viewBox="0 0 48 48"><defs><style>.cls-1{fill:url(#linear-gradient);}.cls-2{fill:url(#linear-gradient-2);}.cls-3{fill:url(#linear-gradient-3);}.cls-4{fill:url(#linear-gradient-4);}.cls-5{fill:url(#linear-gradient-5);}.cls-6{fill:url(#linear-gradient-6);}.cls-7{fill:url(#linear-gradient-7);}.cls-8{fill:url(#linear-gradient-8);}.cls-9{fill:url(#linear-gradient-9);}.cls-10{fill:url(#linear-gradient-10);}.cls-11{fill:url(#linear-gradient-11);}.cls-12{fill:url(#linear-gradient-12);}.cls-13{fill:url(#linear-gradient-13);}.cls-14{fill:url(#linear-gradient-14);}.cls-15{fill:url(#linear-gradient-15);}.cls-16{fill:url(#linear-gradient-16);}.cls-17{fill:url(#linear-gradient-17);}.cls-18{fill:url(#linear-gradient-18);}.cls-19{fill:url(#linear-gradient-19);}</style><linearGradient id="linear-gradient" x1="-11.79" y1="16.18" x2="9.21" y2="9.93" gradientUnits="userSpaceOnUse"><stop offset="0" stop-color="#27e9de"/><stop offset="0.52" stop-color="#03a4ec"/><stop offset="1" stop-color="#2547a8"/></linearGradient><linearGradient id="linear-gradient-2" x1="2.69" y1="11.31" x2="26.15" y2="10.1" gradientUnits="userSpaceOnUse"><stop offset="0" stop-color="#273a9b"/><stop offset="0.56" stop-color="#202f65"/><stop offset="1" stop-color="#021e2f"/></linearGradient><linearGradient id="linear-gradient-3" x1="371.04" y1="16.18" x2="392.04" y2="9.93" gradientTransform="matrix(-1, 0, 0, 1, 430.83, 0)" xlink:href="#linear-gradient"/><linearGradient id="linear-gradient-4" x1="385.52" y1="11.31" x2="408.98" y2="10.1" gradientTransform="matrix(-1, 0, 0, 1, 430.83, 0)" xlink:href="#linear-gradient-2"/><linearGradient id="linear-gradient-5" x1="24" y1="84.5" x2="24" y2="-5.77" xlink:href="#linear-gradient"/><linearGradient id="linear-gradient-6" x1="24" y1="79.72" x2="24" y2="0.38" xlink:href="#linear-gradient"/><linearGradient id="linear-gradient-7" x1="24" y1="70.13" x2="24" y2="18.91" xlink:href="#linear-gradient"/><linearGradient id="linear-gradient-8" x1="24" y1="76.17" x2="24" y2="-64.16" xlink:href="#linear-gradient"/><linearGradient id="linear-gradient-9" x1="24" y1="41.06" x2="24" y2="22.26" xlink:href="#linear-gradient"/><linearGradient id="linear-gradient-10" x1="24" y1="36.92" x2="24" y2="4.83" xlink:href="#linear-gradient"/><linearGradient id="linear-gradient-11" x1="24.02" y1="33.88" x2="24.02" y2="15.52" xlink:href="#linear-gradient"/><linearGradient id="linear-gradient-12" x1="16.5" y1="31.81" x2="16.5" y2="23.13" xlink:href="#linear-gradient-2"/><linearGradient id="linear-gradient-13" x1="15.75" y1="19.27" x2="15.75" y2="16.52" xlink:href="#linear-gradient-2"/><linearGradient id="linear-gradient-14" x1="31.5" y1="31.81" x2="31.5" y2="23.13" xlink:href="#linear-gradient-2"/><linearGradient id="linear-gradient-15" x1="30.75" y1="19.27" x2="30.75" y2="16.52" xlink:href="#linear-gradient-2"/><linearGradient id="linear-gradient-16" x1="24.03" y1="25.79" x2="24.03" y2="18.51" xlink:href="#linear-gradient-2"/><linearGradient id="linear-gradient-17" x1="24.03" y1="11.04" x2="24.03" y2="25.01" xlink:href="#linear-gradient-2"/><linearGradient id="linear-gradient-18" x1="14.24" y1="-7.75" x2="14.24" y2="34.88" xlink:href="#linear-gradient"/><linearGradient id="linear-gradient-19" x1="391.4" y1="-7.75" x2="391.4" y2="34.88" gradientTransform="matrix(-1, 0, 0, 1, 425.16, 0)" xlink:href="#linear-gradient"/></defs><title>bear, animal, wildlife, wild, forest</title><g id="ART"><circle class="cls-1" cx="11.13" cy="9.35" r="6.35"/><path class="cls-2" d="M17.48,9.23A6.3,6.3,0,0,0,6.56,9.07a4.18,4.18,0,0,0,1.32,5.74,6.35,6.35,0,0,0,9.6-5.56Z"/><circle class="cls-3" cx="36.87" cy="9.35" r="6.35"/><path class="cls-4" d="M30.52,9.23a6.3,6.3,0,0,1,10.92-.16,4.18,4.18,0,0,1-1.32,5.74,6.35,6.35,0,0,1-9.6-5.56Z"/><path class="cls-5" d="M24,3C12.4,3,3,16.56,3,33.28v.08A10.65,10.65,0,0,0,11.42,43.7,60.36,60.36,0,0,0,24,45a60.36,60.36,0,0,0,12.58-1.3A10.65,10.65,0,0,0,45,33.37v-.08C45,16.56,35.6,3,24,3Z"/><path class="cls-6" d="M24,8.08c-11.6,0-21,8.47-21,25.2v.08A10.65,10.65,0,0,0,11.42,43.7,60.36,60.36,0,0,0,24,45a60.36,60.36,0,0,0,12.58-1.3A10.65,10.65,0,0,0,45,33.37v-.08C45,16.56,35.6,8.08,24,8.08Z"/><path class="cls-7" d="M17.54,44.66A62.24,62.24,0,0,0,24,45a62.25,62.25,0,0,0,6.46-.34V30H17.54Z"/><path class="cls-8" d="M30.46,29.46C30.46,35.75,27.57,36,24,36s-6.46-.25-6.46-6.54S20.43,18.06,24,18.06,30.46,23.16,30.46,29.46Z"/><path class="cls-9" d="M24,19.56c-3.42,0-6.22,4.69-6.44,10.62a8.88,8.88,0,0,0,.69,3.41,2.67,2.67,0,0,0,2,.9h0a3.75,3.75,0,0,0,3.43-2.24.34.34,0,0,1,.64,0,3.75,3.75,0,0,0,3.43,2.24,2.67,2.67,0,0,0,2-.9,8.88,8.88,0,0,0,.69-3.41C30.22,24.26,27.42,19.56,24,19.56Z"/><path class="cls-10" d="M24,18.06c-3.57,0-6.46,5.1-6.46,11.39q0,.55,0,1A2.67,2.67,0,0,0,20.24,33h0a3.75,3.75,0,0,0,3.43-2.24.34.34,0,0,1,.64,0A3.75,3.75,0,0,0,27.76,33h0a2.67,2.67,0,0,0,2.67-2.5q0-.49,0-1C30.46,23.16,27.57,18.06,24,18.06Z"/><path class="cls-11" d="M21.39,20.25C22,21.42,23,23.67,24,23.67s2-2.24,2.63-3.39"/><circle class="cls-12" cx="16.5" cy="18.06" r="1.5"/><path class="cls-13" d="M16.5,16.56a1.5,1.5,0,0,0-1.5,1.5h1.5Z"/><circle class="cls-14" cx="31.5" cy="18.06" r="1.5"/><path class="cls-15" d="M31.5,16.56a1.5,1.5,0,0,0-1.5,1.5h1.5Z"/><path class="cls-16" d="M24,16.88a4.44,4.44,0,0,0-1.43.24,2.18,2.18,0,0,0-1.17,3.13A3.18,3.18,0,0,0,24,22.16a3.17,3.17,0,0,0,2.63-1.87,2.19,2.19,0,0,0-1.16-3.14A4.46,4.46,0,0,0,24,16.88Z"/><path class="cls-17" d="M22.56,18.3a4.4,4.4,0,0,1,2.94,0,2.15,2.15,0,0,1,1.35,1.48,2.18,2.18,0,0,0-1.35-2.67,4.4,4.4,0,0,0-2.94,0,2.17,2.17,0,0,0-1.37,2.67A2.12,2.12,0,0,1,22.56,18.3Z"/><path class="cls-18" d="M17.4,21.55c0,1.36-1.41,0-3.16,0s-3.16,1.36-3.16,0,1.41-2.47,3.16-2.47S17.4,20.19,17.4,21.55Z"/><path class="cls-19" d="M30.6,21.55c0,1.36,1.41,0,3.16,0s3.16,1.36,3.16,0-1.41-2.47-3.16-2.47S30.6,20.19,30.6,21.55Z"/></g></svg>